<svg xmlns="http://www.w3.org/2000/svg" width="1600" height="900" viewBox="0 0 1600 900">
  <rect width="1600" height="900" fill="#101010"/>
  <text x="40" y="55" fill="#f2f2f2" font-family="Arial, sans-serif" font-size="30" font-weight="700">Crash Game Player Behavior Analytics</text>
  <rect x="40" y="90" width="1520" height="95" rx="14" fill="#181818" stroke="#2a2a2a"/>
  <text x="65" y="125" fill="#ffffff" font-family="Arial, sans-serif" font-size="22" font-weight="700">KPI Summary Table</text>
  <g font-family="Arial, sans-serif" font-size="17" fill="#cfcfcf">
    <text x="80" y="160">Total Bets: 19 983</text>
    <text x="280" y="160">Active Players: 3 081</text>
    <text x="520" y="160">Total Bet Amount: 56.8M</text>
    <text x="820" y="160">Platform GGR: -4.8M</text>
    <text x="1080" y="160">Average Bet: 2 840.7</text>
    <text x="1330" y="160">Win Rate: 57.4%</text>
  </g>

  <g fill="#181818" stroke="#2a2a2a">
    <rect x="40" y="215" width="480" height="230" rx="14"/>
    <rect x="560" y="215" width="480" height="230" rx="14"/>
    <rect x="1080" y="215" width="480" height="230" rx="14"/>
    <rect x="40" y="475" width="480" height="230" rx="14"/>
    <rect x="560" y="475" width="480" height="230" rx="14"/>
    <rect x="1080" y="475" width="480" height="230" rx="14"/>
    <rect x="40" y="735" width="1520" height="130" rx="14"/>
  </g>

  <g font-family="Arial, sans-serif" font-size="21" font-weight="700" fill="#f2f2f2">
    <text x="65" y="250">Daily Bets Count</text>
    <text x="585" y="250">Daily Bet Amount</text>
    <text x="1105" y="250">Daily Platform GGR</text>
    <text x="65" y="510">Win / Loss Share</text>
    <text x="585" y="510">Bets by Hour</text>
    <text x="1105" y="510">Bet Amount by Bet Size Segment</text>
    <text x="65" y="770">Risk Matrix: Bet Size × Crash Segment</text>
  </g>

  <g fill="none" stroke="#26aecd" stroke-width="4">
    <polyline points="80,405 120,340 160,315 200,305 240,320 280,355 320,370 360,355 400,335 460,370"/>
    <polyline points="600,405 640,295 680,390 720,350 760,260 800,285 840,405 880,330 920,370 1000,315"/>
    <polyline points="1120,360 1160,270 1200,400 1240,350 1280,385 1320,300 1360,335 1400,430 1440,315 1510,385"/>
  </g>

  <g fill="#26aecd">
    <circle cx="245" cy="600" r="80"/>
    <rect x="600" y="640" width="18" height="40"/>
    <rect x="630" y="615" width="18" height="65"/>
    <rect x="660" y="590" width="18" height="90"/>
    <rect x="690" y="570" width="18" height="110"/>
    <rect x="720" y="555" width="18" height="125"/>
    <rect x="750" y="545" width="18" height="135"/>
    <rect x="780" y="535" width="18" height="145"/>
    <rect x="810" y="530" width="18" height="150"/>
    <rect x="840" y="540" width="18" height="140"/>
    <rect x="870" y="555" width="18" height="125"/>
    <rect x="1120" y="665" width="55" height="15"/>
    <rect x="1195" y="650" width="55" height="30"/>
    <rect x="1270" y="625" width="55" height="55"/>
    <rect x="1345" y="595" width="55" height="85"/>
    <rect x="1420" y="530" width="55" height="150"/>
  </g>
  <path d="M245 520 A80 80 0 0 1 245 680 L245 600 Z" fill="#4b5285"/>

  <g font-family="Arial, sans-serif" font-size="16" fill="#cfcfcf">
    <text x="80" y="815">Rows: bet_size_segment</text>
    <text x="320" y="815">Columns: crash_segment</text>
    <text x="590" y="815">Metrics: COUNT(*), SUM(bet), SUM(platform_ggr)</text>
  </g>
</svg>
